<svg width="161" height="23" viewBox="0 0 161 23" fill="none" xmlns="http://www.w3.org/2000/svg">
<path d="M151.705 13.3501H160.055V9.12746H151.705V4.28763H160.843V0H147.356V22.7374H161.001V18.4498H151.705V13.3501Z" fill="black"/>
<path d="M136.687 0H132.348V22.7374H145.082V18.4498H136.687V0Z" fill="black"/>
<path fill-rule="evenodd" clip-rule="evenodd" d="M125.054 7.73073C123.828 5.79577 121.753 4.54749 119.386 4.54749C115.744 4.54749 112.791 7.60146 112.791 11.3687C112.791 15.136 115.744 18.1899 119.386 18.1899C121.711 18.1899 123.849 16.8921 125.09 15.0067H130.074C129.402 17.2528 128.077 19.18 126.099 20.6105C124.122 22.0285 121.945 22.7374 119.569 22.7374C118.163 22.7374 116.751 22.4551 115.333 21.8904C113.928 21.3132 112.715 20.5289 111.695 19.5376C110.563 18.4334 109.705 17.1723 109.12 15.7543C108.535 14.3364 108.243 12.8243 108.243 11.2181C108.243 8.11872 109.344 5.47731 111.546 3.29392C113.76 1.09797 116.422 0 119.532 0C121.87 0 124.053 0.721525 126.081 2.16457C128.108 3.60762 129.439 5.4344 130.074 7.73073H125.054Z" fill="black"/>
<path d="M107.334 22.7374L102.44 14.1622C104.997 12.9603 106.702 10.3618 106.702 7.53584C106.702 5.45699 105.976 3.67047 104.555 2.20878C103.135 0.747087 101.398 0 99.3459 0H90.5059V22.7374H94.8628V14.8443H98.1778L102.629 22.7374H107.334ZM99.3459 4.19018C100.988 4.19018 102.345 5.68436 102.345 7.53584C102.345 9.38731 100.988 10.914 99.3459 10.914H94.8628V4.19018H99.3459Z" fill="black"/>
<path d="M83.6836 22.7374H88.2316V0H83.6836V22.7374Z" fill="black"/>
<path d="M28.6523 9.09375H33.6552V13.6412H28.6523V9.09375Z" fill="black"/>
<path fill-rule="evenodd" clip-rule="evenodd" d="M16.8109 7.73073C15.5851 5.79577 13.5095 4.54749 11.1427 4.54749C7.50055 4.54749 4.54803 7.60146 4.54803 11.3687C4.54803 15.136 7.50055 18.1899 11.1427 18.1899C13.4683 18.1899 15.6054 16.8921 16.8466 15.0067H21.8306C21.1588 17.2528 19.8341 19.18 17.8563 20.6105C15.8785 22.0285 13.7016 22.7374 11.3258 22.7374C9.92015 22.7374 8.50832 22.4551 7.09026 21.8904C5.68465 21.3132 4.47184 20.5289 3.45184 19.5376C2.31988 18.4334 1.46159 17.1723 0.876954 15.7543C0.292318 14.3364 0 12.8243 0 11.2181C0 8.11872 1.10086 5.47731 3.30257 3.29392C5.51672 1.09797 8.17868 0 11.2884 0C13.627 0 15.81 0.721525 17.8376 2.16457C19.8652 3.60762 21.1962 5.4344 21.8306 7.73073H16.8109Z" fill="black"/>
<path d="M37.9404 0V22.7374H45.0467C52.2781 22.7374 57.5879 17.8375 57.5879 11.1868C57.5879 4.4679 52.5737 0 45.3423 0H37.9404ZM45.3082 4.16095C49.8449 4.16095 52.8807 6.75302 52.8807 11.1868C52.8807 15.5183 49.8449 18.3491 45.3082 18.3491H42.5453V4.16095H45.3082Z" fill="black"/>
<path d="M38.2034 6.94725e-06L24.1045 0V22.7374H28.8276L28.8629 13.9662V9.80023V4.16595L38.2034 4.16594V6.94725e-06Z" fill="black"/>
<path d="M76.6172 9.05078H81.4093V13.8423H76.6172V9.05078Z" fill="#00AFAB"/>
<path fill-rule="evenodd" clip-rule="evenodd" d="M76.6176 7.73073C75.3918 5.79577 73.0886 4.54749 70.7218 4.54749C67.0797 4.54749 64.1271 7.60146 64.1271 11.3687C64.1271 15.136 67.0797 18.1899 70.7218 18.1899C73.0474 18.1899 75.3764 17.0585 76.6176 15.1731H81.4097C80.7379 17.4192 79.4132 19.18 77.4354 20.6105C75.4576 22.0285 73.2807 22.7374 70.9049 22.7374C69.4993 22.7374 68.0874 22.4551 66.6694 21.8904C65.2638 21.3132 64.0509 20.5289 63.0309 19.5376C61.899 18.4334 61.0407 17.1723 60.4561 15.7543C59.8714 14.3364 59.5791 12.8243 59.5791 11.2181C59.5791 8.11872 60.68 5.47731 62.8817 3.29392C65.0958 1.09797 67.7578 0 70.8675 0C73.2061 0 75.3891 0.721525 77.4167 2.16457C79.4443 3.60762 80.7753 5.4344 81.4097 7.73073H76.6176Z" fill="black"/>
</svg>
