<svg width="23" height="23" viewBox="0 0 23 23" fill="none" xmlns="http://www.w3.org/2000/svg">
<path d="M17.6172 9.05078H22.4093V13.8423H17.6172V9.05078Z" fill="#00AFAB"/>
<path fill-rule="evenodd" clip-rule="evenodd" d="M17.6176 7.73073C16.3918 5.79577 14.0886 4.54749 11.7218 4.54749C8.07966 4.54749 5.12713 7.60146 5.12713 11.3687C5.12713 15.136 8.07966 18.1899 11.7218 18.1899C14.0474 18.1899 16.3764 17.0585 17.6176 15.1731H22.4097C21.7379 17.4192 20.4132 19.18 18.4354 20.6105C16.4576 22.0285 14.2807 22.7374 11.9049 22.7374C10.4993 22.7374 9.08742 22.4551 7.66937 21.8904C6.26375 21.3132 5.05094 20.5289 4.03094 19.5376C2.89899 18.4334 2.04069 17.1723 1.45606 15.7543C0.871419 14.3364 0.579102 12.8243 0.579102 11.2181C0.579102 8.11872 1.67996 5.47731 3.88167 3.29392C6.09582 1.09797 8.75778 0 11.8675 0C14.2061 0 16.3891 0.721525 18.4167 2.16457C20.4443 3.60762 21.7753 5.4344 22.4097 7.73073H17.6176Z" fill="black"/>
</svg>
